<svg width="310" height="28" viewBox="0 0 310 28" fill="none" xmlns="http://www.w3.org/2000/svg">
<path d="M150.36 13.6297H152.597V15.1212H150.36V13.6297Z" fill="#0F172A"/>
<path d="M158.898 11.5193C157.576 9.35508 155.771 7.52531 153.626 6.17247C152.635 5.5443 151.505 5.16831 150.335 5.07732C149.165 4.98632 147.991 5.1831 146.914 5.65046C145.973 6.09455 145.154 6.76113 144.528 7.59264C143.901 8.42415 143.487 9.39561 143.32 10.4231C143.26 10.7736 143.216 11.1092 143.171 11.4373C142.473 11.5505 141.837 11.908 141.379 12.4462C140.92 12.9844 140.667 13.6682 140.665 14.3755V18.9468C140.665 19.3423 140.822 19.7217 141.102 20.0014C141.382 20.2811 141.761 20.4382 142.157 20.4382V14.3755C142.157 13.9799 142.314 13.6005 142.594 13.3208C142.873 13.0411 143.253 12.884 143.648 12.884H157.616C159.053 12.886 160.431 13.4578 161.447 14.4741C162.463 15.4904 163.035 16.8682 163.037 18.3054V18.8498H161.546C161.231 18.0818 160.644 17.4566 159.897 17.0936C159.151 16.7306 158.297 16.6551 157.498 16.8816C156.7 17.1081 156.013 17.6207 155.568 18.3215C155.123 19.0224 154.952 19.8625 155.087 20.6815C155.222 21.5005 155.654 22.2411 156.3 22.7619C156.947 23.2828 157.762 23.5474 158.591 23.5053C159.42 23.4633 160.205 23.1174 160.795 22.5338C161.385 21.9502 161.74 21.1697 161.792 20.3413H163.037C163.433 20.3413 163.812 20.1841 164.092 19.9044C164.371 19.6247 164.528 19.2454 164.528 18.8498V18.3054C164.525 16.6961 163.962 15.1381 162.934 13.8996C161.907 12.661 160.479 11.8193 158.898 11.5193ZM147.377 11.3926H144.342C144.342 11.1614 144.409 10.9227 144.454 10.6468C144.582 9.82761 144.919 9.05497 145.43 8.40235C145.942 7.74973 146.612 7.23882 147.377 6.9182V11.3926ZM148.868 11.3926V6.60499C150.26 6.4242 151.672 6.72977 152.865 7.47003C154.494 8.48435 155.899 9.81883 156.997 11.3926H148.868ZM158.414 22.1161C158.045 22.1161 157.684 22.0067 157.378 21.8019C157.071 21.597 156.832 21.3059 156.691 20.9652C156.55 20.6246 156.513 20.2497 156.585 19.8881C156.657 19.5264 156.835 19.1942 157.095 18.9335C157.356 18.6728 157.688 18.4952 158.05 18.4233C158.411 18.3513 158.786 18.3883 159.127 18.5294C159.468 18.6705 159.759 18.9094 159.964 19.216C160.169 19.5226 160.278 19.883 160.278 20.2518C160.278 20.7462 160.081 21.2204 159.732 21.57C159.382 21.9197 158.908 22.1161 158.414 22.1161Z" fill="#0F172A"/>
<path d="M149.741 18.8498C149.426 18.0818 148.839 17.4566 148.093 17.0936C147.346 16.7306 146.492 16.6551 145.694 16.8816C144.895 17.1081 144.208 17.6207 143.763 18.3215C143.318 19.0224 143.147 19.8625 143.282 20.6815C143.417 21.5005 143.849 22.2411 144.496 22.7619C145.142 23.2828 145.957 23.5474 146.786 23.5053C147.615 23.4633 148.4 23.1174 148.99 22.5338C149.581 21.9502 149.935 21.1697 149.987 20.3413H153.939V20.1548C153.924 19.7149 153.975 19.2751 154.088 18.8498H149.741ZM146.631 22.1161C146.262 22.1161 145.902 22.0067 145.595 21.8019C145.289 21.597 145.05 21.3059 144.909 20.9652C144.768 20.6246 144.731 20.2497 144.803 19.8881C144.875 19.5264 145.052 19.1942 145.313 18.9335C145.574 18.6728 145.906 18.4952 146.267 18.4233C146.629 18.3513 147.004 18.3883 147.345 18.5294C147.685 18.6705 147.976 18.9094 148.181 19.216C148.386 19.5226 148.495 19.883 148.495 20.2518C148.495 20.7462 148.299 21.2204 147.949 21.57C147.6 21.9197 147.126 22.1161 146.631 22.1161Z" fill="#0F172A"/>
<path d="M7.41932 13.9744C6.90728 13.9744 6.4162 13.7787 6.05413 13.4305C5.69205 13.0823 5.48864 12.61 5.48864 12.1175C5.48864 11.625 5.69205 11.1527 6.05413 10.8045C6.4162 10.4562 6.90728 10.2606 7.41932 10.2606C7.93137 10.2606 8.42245 10.4562 8.78452 10.8045C9.14659 11.1527 9.35001 11.625 9.35001 12.1175C9.35001 12.3613 9.30007 12.6028 9.20304 12.8281C9.10602 13.0534 8.9638 13.2581 8.78452 13.4305C8.60524 13.6029 8.39241 13.7397 8.15816 13.833C7.92392 13.9263 7.67287 13.9744 7.41932 13.9744ZM7.41932 6.9182C5.98559 6.9182 4.61057 7.46598 3.59677 8.44103C2.58297 9.41609 2.01342 10.7385 2.01342 12.1175C2.01342 16.0169 7.41932 21.7733 7.41932 21.7733C7.41932 21.7733 12.8252 16.0169 12.8252 12.1175C12.8252 10.7385 12.2557 9.41609 11.2419 8.44103C10.2281 7.46598 8.85306 6.9182 7.41932 6.9182Z" fill="#0F172A"/>
<path d="M0.468872 21.8327V21.0305H5.10251V21.8327H0.468872Z" fill="#0F172A"/>
<path d="M7.72703 21.8327V21.0305H12.3607V21.8327H7.72703Z" fill="#0F172A"/>
<path d="M14.9852 21.8327V21.0305H19.6188V21.8327H14.9852Z" fill="#0F172A"/>
<path d="M22.2433 21.8327V21.0305H26.877V21.8327H22.2433Z" fill="#0F172A"/>
<path d="M29.5015 21.8327V21.0305H34.1351V21.8327H29.5015Z" fill="#0F172A"/>
<path d="M36.7596 21.8327V21.0305H41.3933V21.8327H36.7596Z" fill="#0F172A"/>
<path d="M44.0178 21.8327V21.0305H48.6514V21.8327H44.0178Z" fill="#0F172A"/>
<path d="M51.276 21.8327V21.0305H55.9096V21.8327H51.276Z" fill="#0F172A"/>
<path d="M58.5341 21.8327V21.0305H63.1677V21.8327H58.5341Z" fill="#0F172A"/>
<path d="M65.7923 21.8327V21.0305H70.4259V21.8327H65.7923Z" fill="#0F172A"/>
<path d="M73.0504 21.8327V21.0305H77.6841V21.8327H73.0504Z" fill="#0F172A"/>
<path d="M80.3086 21.8327V21.0305H84.9422V21.8327H80.3086Z" fill="#0F172A"/>
<path d="M87.5667 21.8327V21.0305H92.2004V21.8327H87.5667Z" fill="#0F172A"/>
<path d="M94.8249 21.8327V21.0305H99.4585V21.8327H94.8249Z" fill="#0F172A"/>
<path d="M102.083 21.8327V21.0305H106.717V21.8327H102.083Z" fill="#0F172A"/>
<path d="M109.341 21.8327V21.0305H113.975V21.8327H109.341Z" fill="#0F172A"/>
<path d="M116.599 21.8327V21.0305H121.233V21.8327H116.599Z" fill="#0F172A"/>
<path d="M123.857 21.8327V21.0305H128.491V21.8327H123.857Z" fill="#0F172A"/>
<path d="M131.116 21.8327V21.0305H135.749V21.8327H131.116Z" fill="#0F172A"/>
<path d="M138.374 21.8327V21.0305H143.007V21.8327H138.374Z" fill="#0F172A"/>
<path d="M145.632 21.8327V21.0305H150.266V21.8327H145.632Z" fill="#0F172A"/>
<path d="M152.89 21.8327V21.0305H157.524V21.8327H152.89Z" fill="#0F172A"/>
<path d="M160.148 21.8327V21.0305H164.782V21.8327H160.148Z" fill="#0F172A"/>
<path d="M167.406 21.8327V21.0305H172.04V21.8327H167.406Z" fill="#0F172A"/>
<path d="M174.665 21.8327V21.0305H179.298V21.8327H174.665Z" fill="#0F172A"/>
<path d="M181.923 21.8327V21.0305H186.556V21.8327H181.923Z" fill="#0F172A"/>
<path d="M189.181 21.8327V21.0305H193.815V21.8327H189.181Z" fill="#0F172A"/>
<path d="M196.439 21.8327V21.0305H201.073V21.8327H196.439Z" fill="#0F172A"/>
<path d="M203.697 21.8327V21.0305H208.331V21.8327H203.697Z" fill="#0F172A"/>
<path d="M210.955 21.8327V21.0305H215.589V21.8327H210.955Z" fill="#0F172A"/>
<path d="M218.214 21.8327V21.0305H222.847V21.8327H218.214Z" fill="#0F172A"/>
<path d="M225.472 21.8327V21.0305H230.105V21.8327H225.472Z" fill="#0F172A"/>
<path d="M232.73 21.8327V21.0305H237.363V21.8327H232.73Z" fill="#0F172A"/>
<path d="M239.988 21.8327V21.0305H244.622V21.8327H239.988Z" fill="#0F172A"/>
<path d="M247.246 21.8327V21.0305H251.88V21.8327H247.246Z" fill="#0F172A"/>
<path d="M254.504 21.8327V21.0305H259.138V21.8327H254.504Z" fill="#0F172A"/>
<path d="M261.762 21.8327V21.0305H266.396V21.8327H261.762Z" fill="#0F172A"/>
<path d="M269.021 21.8327V21.0305H273.654V21.8327H269.021Z" fill="#0F172A"/>
<path d="M276.279 21.8327V21.0305H280.912V21.8327H276.279Z" fill="#0F172A"/>
<path d="M283.537 21.8327V21.0305H288.171V21.8327H283.537Z" fill="#0F172A"/>
<path d="M290.795 21.8327V21.0305H295.429V21.8327H290.795Z" fill="#0F172A"/>
<path d="M298.053 21.8327V21.0305H302.687V21.8327H298.053Z" fill="#0F172A"/>
<path d="M305.311 21.8327V21.0305H309.945V21.8327H305.311Z" fill="#0F172A"/>
<path d="M303.2 13.9744C302.688 13.9744 302.197 13.7787 301.834 13.4305C301.472 13.0823 301.269 12.61 301.269 12.1175C301.269 11.625 301.472 11.1527 301.834 10.8045C302.197 10.4562 302.688 10.2606 303.2 10.2606C303.712 10.2606 304.203 10.4562 304.565 10.8045C304.927 11.1527 305.13 11.625 305.13 12.1175C305.13 12.3613 305.08 12.6028 304.983 12.8281C304.886 13.0534 304.744 13.2581 304.565 13.4305C304.386 13.6029 304.173 13.7397 303.939 13.833C303.704 13.9263 303.453 13.9744 303.2 13.9744ZM303.2 6.9182C301.766 6.9182 300.391 7.46598 299.377 8.44103C298.363 9.41609 297.794 10.7385 297.794 12.1175C297.794 16.0169 303.2 21.7733 303.2 21.7733C303.2 21.7733 308.606 16.0169 308.606 12.1175C308.606 10.7385 308.036 9.41609 307.022 8.44103C306.008 7.46598 304.633 6.9182 303.2 6.9182Z" fill="#0F172A"/>
</svg>
